<?xml version="1.0" encoding="UTF-8" standalone="no"?>
<svg
   xmlns:dc="http://purl.org/dc/elements/1.1/"
   xmlns:cc="http://creativecommons.org/ns#"
   xmlns:rdf="http://www.w3.org/1999/02/22-rdf-syntax-ns#"
   xmlns:svg="http://www.w3.org/2000/svg"
   xmlns="http://www.w3.org/2000/svg"
   xmlns:sodipodi="http://sodipodi.sourceforge.net/DTD/sodipodi-0.dtd"
   xmlns:inkscape="http://www.inkscape.org/namespaces/inkscape"
   width="8.5cm"
   height="9.5cm"
   viewBox="0 0 85 94.999992"
   version="1.1"
   id="svg8"
   inkscape:version="1.0.1 (3bc2e813f5, 2020-09-07)"
   sodipodi:docname="TTensors.svg">
  <defs
     id="defs2">
    <inkscape:path-effect
       effect="bspline"
       id="path-effect978"
       is_visible="true"
       lpeversion="1"
       weight="33.333333"
       steps="2"
       helper_size="0"
       apply_no_weight="true"
       apply_with_weight="true"
       only_selected="false" />
    <inkscape:path-effect
       effect="bspline"
       id="path-effect974"
       is_visible="true"
       lpeversion="1"
       weight="33.333333"
       steps="2"
       helper_size="0"
       apply_no_weight="true"
       apply_with_weight="true"
       only_selected="false" />
    <inkscape:path-effect
       effect="bspline"
       id="path-effect970"
       is_visible="true"
       lpeversion="1"
       weight="33.333333"
       steps="2"
       helper_size="0"
       apply_no_weight="true"
       apply_with_weight="true"
       only_selected="false" />
    <inkscape:path-effect
       effect="bspline"
       id="path-effect966"
       is_visible="true"
       lpeversion="1"
       weight="33.333333"
       steps="2"
       helper_size="0"
       apply_no_weight="true"
       apply_with_weight="true"
       only_selected="false" />
    <inkscape:path-effect
       effect="bspline"
       id="path-effect962"
       is_visible="true"
       lpeversion="1"
       weight="33.333333"
       steps="2"
       helper_size="0"
       apply_no_weight="true"
       apply_with_weight="true"
       only_selected="false" />
    <inkscape:path-effect
       effect="bspline"
       id="path-effect958"
       is_visible="true"
       lpeversion="1"
       weight="33.333333"
       steps="2"
       helper_size="0"
       apply_no_weight="true"
       apply_with_weight="true"
       only_selected="false" />
    <inkscape:path-effect
       effect="bspline"
       id="path-effect954"
       is_visible="true"
       lpeversion="1"
       weight="33.333333"
       steps="2"
       helper_size="0"
       apply_no_weight="true"
       apply_with_weight="true"
       only_selected="false" />
    <inkscape:path-effect
       effect="bspline"
       id="path-effect950"
       is_visible="true"
       lpeversion="1"
       weight="33.333333"
       steps="2"
       helper_size="0"
       apply_no_weight="true"
       apply_with_weight="true"
       only_selected="false" />
    <inkscape:path-effect
       effect="bspline"
       id="path-effect941"
       is_visible="true"
       lpeversion="1"
       weight="33.333333"
       steps="2"
       helper_size="0"
       apply_no_weight="true"
       apply_with_weight="true"
       only_selected="false" />
    <inkscape:path-effect
       effect="bspline"
       id="path-effect937"
       is_visible="true"
       lpeversion="1"
       weight="33.333333"
       steps="2"
       helper_size="0"
       apply_no_weight="true"
       apply_with_weight="true"
       only_selected="false" />
    <inkscape:path-effect
       effect="bspline"
       id="path-effect929"
       is_visible="true"
       lpeversion="1"
       weight="33.333333"
       steps="2"
       helper_size="0"
       apply_no_weight="true"
       apply_with_weight="true"
       only_selected="false" />
    <inkscape:path-effect
       effect="bspline"
       id="path-effect925"
       is_visible="true"
       lpeversion="1"
       weight="33.333333"
       steps="2"
       helper_size="0"
       apply_no_weight="true"
       apply_with_weight="true"
       only_selected="false" />
    <inkscape:path-effect
       effect="bspline"
       id="path-effect921"
       is_visible="true"
       lpeversion="1"
       weight="33.333333"
       steps="2"
       helper_size="0"
       apply_no_weight="true"
       apply_with_weight="true"
       only_selected="false" />
    <inkscape:perspective
       sodipodi:type="inkscape:persp3d"
       inkscape:vp_x="0 : -53.499998 : 1"
       inkscape:vp_y="0 : 999.99989 : 0"
       inkscape:vp_z="210 : -53.499998 : 1"
       inkscape:persp3d-origin="105 : -103 : 1"
       id="perspective899" />
  </defs>
  <sodipodi:namedview
     id="base"
     pagecolor="#ffffff"
     bordercolor="#666666"
     borderopacity="1.0"
     inkscape:pageopacity="0.0"
     inkscape:pageshadow="2"
     inkscape:zoom="0.98994949"
     inkscape:cx="12.594362"
     inkscape:cy="240.96138"
     inkscape:document-units="mm"
     inkscape:current-layer="layer1"
     inkscape:document-rotation="0"
     showgrid="false"
     inkscape:snap-global="false"
     inkscape:window-width="1326"
     inkscape:window-height="959"
     inkscape:window-x="590"
     inkscape:window-y="74"
     inkscape:window-maximized="0"
     units="cm" />
  <metadata
     id="metadata5">
    <rdf:RDF>
      <cc:Work
         rdf:about="">
        <dc:format>image/svg+xml</dc:format>
        <dc:type
           rdf:resource="http://purl.org/dc/dcmitype/StillImage" />
        <dc:title></dc:title>
      </cc:Work>
    </rdf:RDF>
  </metadata>
  <g
     inkscape:label="Layer 1"
     inkscape:groupmode="layer"
     id="layer1">
    <path
       style="fill:#fbd62d;fill-opacity:1;stroke:#fea80e;stroke-width:0.264583px;stroke-linecap:butt;stroke-linejoin:miter;stroke-opacity:1"
       d="m 33.712228,91.063919 c -0.218748,-0.278522 -0.656468,-0.835851 -2.386003,-1.710415 -1.729535,-0.874564 -4.750854,-2.066145 -7.3918,-3.809972 -2.640945,-1.743827 -4.901323,-4.039939 -6.7399,-6.657658 -1.838576,-2.61772 -3.255152,-5.55695 -4.15106,-8.716304 -0.895908,-3.159354 -1.270986,-6.538624 -1.06525,-9.554699 0.205736,-3.016075 0.992344,-5.668675 2.360286,-7.60774 1.367942,-1.939065 3.316996,-3.164271 5.312358,-4.112009 1.995362,-0.947738 4.036823,-1.617946 5.120473,-2.500716 1.083649,-0.88277 1.209637,-1.97833 1.000573,-3.246181 -0.209063,-1.267851 -0.753306,-2.70801 -0.801553,-4.076288 -0.04825,-1.368278 0.399666,-2.664426 0.47915,-3.754366 0.07948,-1.089939 -0.209616,-1.973759 0.009,-1.532123 0.218654,0.441636 0.945015,2.208686 1.671107,4.02113 0.726093,1.812445 1.451888,3.670197 2.160584,4.877726 0.708696,1.207529 1.400095,1.76488 2.331252,1.834427 0.931157,0.06955 2.102157,-0.348414 3.050595,-1.330952 0.948438,-0.982539 1.674467,-2.529759 1.873646,-4.015407 0.199178,-1.485648 -0.128621,-2.909818 -1.26977,-4.739001 -1.141149,-1.829184 -3.09574,-4.063233 -4.384687,-6.225251 -1.288947,-2.162018 -1.912031,-4.25191 -1.694998,-6.1363 0.217032,-1.884391 1.274289,-3.562923 2.571644,-5.138086 1.297355,-1.575162 2.834681,-3.046796 3.608106,-5.209766 0.773425,-2.1629697 0.782925,-5.017399 0.704885,-7.2000758 -0.07804,-2.1826769 -0.243648,-3.69352604 -0.08379,-2.9992813 0.159858,0.6942448 0.645143,3.5934655 1.239332,5.6349964 0.594188,2.0415309 1.297102,3.2252377 1.616972,4.5919587 0.319869,1.366721 0.256874,2.916413 0.564861,4.433371 0.307987,1.516958 0.986771,3.001006 1.81479,3.336708 0.82802,0.335701 1.805346,-0.476613 1.916465,-2.016427 0.111118,-1.539814 -0.64403,-3.807364 -0.518257,-4.178855 0.125773,-0.37149 1.13235,1.153082 1.546181,2.872291 0.413831,1.719209 0.235135,3.63303 0.02353,5.108351 -0.211599,1.475322 -0.456064,2.51211 -0.07913,3.636835 0.376937,1.124725 1.374955,2.337217 2.347509,3.388126 0.972554,1.050908 1.919546,1.940197 2.422054,2.922026 0.502508,0.98183 0.560774,2.056132 0.369322,3.334168 -0.191451,1.278037 -0.632534,2.759836 -0.602647,4.17309 0.02989,1.413253 0.530569,2.757736 1.594778,3.52434 1.064208,0.766604 2.691699,0.955587 3.744432,0.590251 1.052733,-0.365336 1.531,-1.285028 1.810286,-2.61172 0.279287,-1.326693 0.359539,-3.060454 -0.135241,-4.571782 -0.494781,-1.511328 -1.564799,-2.800179 -1.757075,-4.402395 -0.192276,-1.602217 0.493472,-3.517558 0.836381,-3.782991 0.342909,-0.265433 0.342909,1.118927 0.788252,2.493488 0.445343,1.374561 1.335792,2.739201 2.007738,3.29476 0.671946,0.555558 1.125465,0.302378 1.265321,-0.565678 0.139855,-0.868056 -0.0339,-2.351256 0.242667,-2.429062 0.276571,-0.07781 1.003309,1.249739 1.308382,2.492629 0.305074,1.24289 0.188665,2.40114 -0.09945,3.645856 -0.288115,1.244716 -0.747888,2.575915 -0.809534,3.701457 -0.06165,1.125541 0.274657,2.04521 0.979831,2.154848 0.705174,0.109637 1.779215,-0.590392 2.623946,-2.029006 0.84473,-1.438614 1.460221,-3.615934 1.316083,-5.692312 -0.144138,-2.076378 -1.048085,-4.05185 -2.497822,-5.973326 -1.449737,-1.921476 -3.445299,-3.788794 -4.906246,-5.66388 -1.460946,-1.875085 -2.38708,-3.757883 -2.567798,-5.50377 -0.180718,-1.745888 0.384187,-3.3546 0.637586,-5.20664 0.253398,-1.852039 0.19522,-3.94741 0.605283,-3.8152012 0.410063,0.1322087 1.288221,2.4918952 2.110274,4.8117052 0.822053,2.31981 1.587963,4.5996 3.128056,6.578147 1.540092,1.978546 3.854074,3.655834 5.729588,4.814493 1.875515,1.158659 3.312442,1.798705 4.371836,3.118905 1.059394,1.320199 1.741418,3.320288 2.904802,5.095185 1.163384,1.774898 2.807885,3.324566 3.874159,4.975742 1.066274,1.651175 1.554455,3.403705 1.500214,5.05166 -0.05424,1.647956 -0.650744,3.191404 -1.782269,4.646222 -1.131526,1.454818 -2.798076,2.821079 -3.66686,4.325951 -0.868783,1.504873 -0.939732,3.147992 -0.622758,4.178449 0.316974,1.030456 1.021504,1.448266 1.580288,1.149044 0.558784,-0.299221 0.972152,-1.315408 1.799871,-2.19839 0.827719,-0.882983 2.069596,-1.632537 2.879477,-2.679472 0.80988,-1.046936 1.187849,-2.391406 1.35066,-0.944268 0.162811,1.447137 0.110412,5.685638 -0.104237,9.649534 -0.214649,3.963897 -0.591512,7.652977 -1.422896,10.94273 -0.831384,3.289754 -2.117205,6.180123 -4.507106,8.857875 -2.389902,2.677752 -5.883824,5.142888 -10.001301,7.256541 -4.117478,2.113652 -8.858345,3.875718 -12.39711,4.473738 -3.538765,0.59802 -5.875413,0.03185 -8.32254,-0.170389 -2.447126,-0.202244 -5.004527,-0.04047 -6.709041,-0.146741 -1.704514,-0.10627 -2.556125,-0.480728 -2.982101,-0.668033 -0.425977,-0.187304 -0.425937,-0.187304 -0.644684,-0.465825 z"
       id="path964"
       inkscape:path-effect="#path-effect966"
       inkscape:original-d="m 33.930975,91.34244 c -0.43746,-0.55707 -0.87518,-1.1144 -1.31317,-1.672 -3.02117,-1.19136 -6.04249,-2.38294 -9.06413,-3.57481 -2.26019,-2.29593 -4.52057,-4.59204 -6.781249,-6.88845 -1.416365,-2.93908 -2.832942,-5.87831 -4.249809,-8.81786 -0.374827,-3.37913 -0.749906,-6.7584 -1.125255,-10.13799 0.786906,-2.65244 1.573512,-5.30504 2.359872,-7.95796 1.9494,-1.225 3.898458,-2.4502 5.847291,-3.6757 2.0418,-0.66997 4.08326,-1.34018 6.12449,-2.01066 0.12626,-1.09534 0.25225,-2.1909 0.37797,-3.28674 -0.544,-1.43995 -1.08824,-2.88011 -1.63276,-4.32056 0.4482,-1.29594 0.89611,-2.59209 1.34377,-3.88853 -0.28885,-0.8836 -0.57795,-1.76742 -0.86732,-2.65153 0.72665,1.76738 1.45301,3.53443 2.17912,5.30124 0.72608,1.85808 1.45188,3.71583 2.17742,5.57334 0.69169,0.55763 1.38309,1.11498 2.07423,1.67208 1.17131,-0.41771 2.34231,-0.83567 3.51307,-1.25391 0.72632,-1.54701 1.45235,-3.09423 2.17813,-4.64175 -0.32755,-1.42397 -0.65535,-2.84814 -0.98342,-4.27261 -1.9544,-2.23387 -3.90899,-4.46792 -5.86389,-6.70228 -0.62284,-2.08971 -1.24593,-4.1796 -1.86929,-6.2698 1.05756,-1.67834 2.11482,-3.35687 3.17183,-5.03569 1.53765,-1.47143 3.07498,-2.94306 4.61207,-4.41499 0.01,-2.85428 0.0193,-5.70871 0.0285,-8.56346 -0.16535,-1.51063 -0.33095,-3.02148 -0.49683,-4.53261 0.48557,2.89961 0.97086,5.79883 1.45589,8.69786 0.70321,1.18402 1.40612,2.36773 2.10879,3.5512 -0.0627,1.55003 -0.12573,3.09972 -0.18899,4.64919 0.67908,1.48438 1.35786,2.96843 2.0364,4.45225 0.97762,-0.81208 1.95495,-1.62439 2.93202,-2.43698 -0.75491,-2.26738 -1.51006,-4.53493 -2.26549,-6.80279 1.00688,1.52489 2.01346,3.04946 3.01978,4.57379 -0.17844,1.91416 -0.35714,3.82798 -0.5361,5.74157 -0.24421,1.0371 -0.48867,2.07389 -0.73341,3.11043 0.99833,1.21281 1.99635,2.4253 2.99412,3.63756 0.9473,0.88959 1.89429,1.77888 2.84103,2.66792 0.0585,1.0746 0.1168,2.1489 0.1748,3.22295 -0.44084,1.48213 -0.88192,2.96393 -1.32328,4.4455 0.50096,1.34479 1.00165,2.68927 1.50207,4.03351 1.62782,0.18925 3.25531,0.37824 4.88257,0.56696 0.47855,-0.91946 0.95682,-1.83915 1.43483,-2.75913 0.0805,-1.73356 0.16077,-3.46732 0.24076,-5.20137 -1.0698,-1.28864 -2.13982,-2.57749 -3.21012,-3.86663 0.68604,-1.91516 1.37179,-3.8305 2.05729,-5.74615 2.7e-4,1.38467 2.7e-4,2.76903 0,4.15315 0.89075,1.36496 1.7812,2.7296 2.6714,4.094 0.4538,-0.25293 0.90732,-0.50611 1.36059,-0.75956 -0.1735,-1.483 -0.34726,-2.9662 -0.52129,-4.4497 0.72704,1.32786 1.45377,2.65541 2.18026,3.98272 -0.11614,1.15855 -0.23255,2.3168 -0.34923,3.4748 -0.45953,1.33151 -0.9193,2.66271 -1.37934,3.99366 0.33658,0.91997 0.67288,1.83964 1.00893,2.75907 1.07435,-0.6998 2.14839,-1.39983 3.22219,-2.10013 0.61578,-2.17714 1.23127,-4.35446 1.84651,-6.53209 -0.90371,-1.97527 -1.80766,-3.95074 -2.71188,-5.9265 -1.99538,-1.86713 -3.99094,-3.73445 -5.98681,-5.60207 -0.92591,-1.88261 -1.85204,-3.76541 -2.77846,-5.64851 0.56519,-1.60851 1.1301,-3.21722 1.69475,-4.82623 -0.0579,-2.09519 -0.1161,-4.19056 -0.17454,-6.28624 0.87846,2.36005 1.75661,4.71974 2.63453,7.07921 0.7662,2.28015 1.53211,4.55994 2.29778,6.83952 2.31433,1.67761 4.62831,3.3549 6.94208,5.03196 1.43724,0.64033 2.87417,1.28037 4.31085,1.92017 0.68232,2.00043 1.36434,4.00052 2.04611,6.00038 1.64483,1.55 3.28933,3.09967 4.933604,4.6491 0.48846,1.75286 0.97664,3.50539 1.46457,5.25769 -0.59627,1.54378 -1.19277,3.08723 -1.78955,4.63045 -1.666354,1.36658 -3.332904,2.73284 -4.999744,4.09886 -0.0707,1.64345 -0.14164,3.28657 -0.21285,4.92945 0.70484,0.4181 1.40937,0.83591 2.11366,1.25347 0.41365,-1.01595 0.82701,-2.03214 1.24012,-3.0486 1.242194,-0.74933 2.484074,-1.49888 3.725714,-2.24871 0.37825,-1.34426 0.75622,-2.68873 1.13393,-4.03349 -0.0521,4.23895 -0.10453,8.47745 -0.1572,12.71579 -0.37661,3.68948 -0.75347,7.37856 -1.13061,11.06744 -1.2856,2.89074 -2.57142,5.78111 -3.857534,8.67127 -3.4938,2.4655 -6.98772,4.93064 -10.48198,7.39556 -4.74079,1.7624 -9.48166,3.52446 -14.22288,5.2863 -2.33647,-0.56593 -4.67312,-1.13209 -7.01007,-1.69853 -2.55724,0.16204 -5.11464,0.32382 -7.67236,0.48533 -0.85138,-0.37421 -1.70299,-0.74867 -2.55489,-1.1234 z" />
    <path
       style="fill:#f5ef53;fill-opacity:1;stroke:none;stroke-width:0.264583px;stroke-linecap:butt;stroke-linejoin:miter;stroke-opacity:1"
       d="m 40.135459,88.672436 c -0.544287,-0.122481 -1.101878,-0.285556 -2.814726,-0.82906 -1.712848,-0.543503 -4.580791,-1.467394 -7.137091,-3.145936 -2.5563,-1.678541 -4.800752,-4.1118 -7.139248,-7.156924 -2.338496,-3.045124 -4.770856,-6.701964 -5.297998,-10.436488 -0.527142,-3.734523 0.851182,-7.546361 1.662791,-10.249622 0.811608,-2.703261 1.056447,-4.297882 1.488309,-4.516319 0.431862,-0.218437 1.050517,0.939205 1.974856,0.780512 0.924339,-0.158693 2.154494,-1.633397 3.100685,-3.166255 0.946191,-1.532858 1.608407,-3.12389 1.724713,-4.253056 0.116306,-1.129166 -0.31356,-1.796589 -0.143848,-1.834074 0.169711,-0.03749 0.938877,0.55503 1.323323,1.456663 0.384446,0.901633 0.384446,2.112283 0.384533,3.299968 8.6e-5,1.187685 2.6e-4,2.352335 1.077914,2.77703 1.077655,0.424696 3.232476,0.109722 5.950961,-0.236757 2.718485,-0.346479 6.000445,-0.724447 9.250212,-1.468956 3.249767,-0.744508 6.467217,-1.855478 8.906083,-2.100711 2.438866,-0.245232 4.098867,0.375094 5.318459,1.481139 1.219593,1.106045 1.998883,2.697534 2.256342,1.763197 0.257458,-0.934338 -0.0068,-4.394359 0.521131,-6.806691 0.527916,-2.412332 1.847967,-3.776562 2.962654,-5.593948 1.114688,-1.817386 2.023996,-4.087936 2.287803,-4.259043 0.263806,-0.171106 -0.117907,1.757135 -0.482265,3.704089 -0.364359,1.946953 -0.711345,3.912502 -0.187536,5.7517 0.523809,1.839197 1.918089,3.551857 2.989107,5.184113 1.071017,1.632257 1.818796,3.183987 1.788,4.747249 -0.0308,1.563262 -0.839949,3.138181 -0.804409,4.571447 0.03554,1.433266 0.915489,2.724597 1.228837,4.801859 0.313348,2.077263 0.06032,4.940393 -0.945681,7.71769 -1.005996,2.777297 -2.764856,5.468768 -4.920618,8.259173 -2.155763,2.790406 -4.708311,5.679617 -7.469155,7.221686 -2.760844,1.54207 -5.730084,1.736959 -8.09225,1.923533 -2.362165,0.186573 -4.116985,0.364813 -5.541861,0.513278 -1.424876,0.148465 -2.519356,0.267109 -3.332087,0.28551 -0.812731,0.0184 -1.343654,-0.06351 -1.88794,-0.185996 z"
       id="path968"
       inkscape:path-effect="#path-effect970"
       inkscape:original-d="m 40.148491,88.71295 c -0.55737,-0.16282 -1.11496,-0.3259 -1.67286,-0.48925 -2.8678,-0.92366 -5.73574,-1.84756 -8.60401,-2.77173 -2.24427,-2.43308 -4.48872,-4.86634 -6.73347,-7.2999 -2.43219,-3.65672 -4.86455,-7.31356 -7.29722,-10.97073 1.37864,-3.81172 2.75696,-7.62356 4.13505,-11.43573 0.24511,-1.59442 0.48995,-3.18904 0.73453,-4.78396 0.61894,1.15795 1.2376,2.31559 1.856,3.47299 1.23046,-1.4745 2.46062,-2.9492 3.69053,-4.42419 0.66251,-1.59083 1.32473,-3.18186 1.98669,-4.7732 -0.42961,-0.66717 -0.85948,-1.33459 -1.28961,-2.00229 0.76946,0.59281 1.53863,1.18532 2.30755,1.77759 2.6e-4,1.21096 2.6e-4,2.42161 0,3.63202 5.2e-4,1.16496 7.9e-4,2.32961 5.2e-4,3.49402 2.15518,-0.31472 4.31,-0.6297 6.4646,-0.94494 3.28236,-0.37772 6.56432,-0.75569 9.84609,-1.13393 3.21784,-1.11075 6.43529,-2.22172 9.65253,-3.33297 1.66033,0.62061 3.32033,1.24094 4.98009,1.86101 0.77959,1.59182 1.55888,3.18331 2.33792,4.77457 -0.26399,-3.4599 -0.52824,-6.91992 -0.79275,-10.38028 1.32037,-1.36403 2.64042,-2.72826 3.96024,-4.09278 0.90961,-2.27038 1.81892,-4.54093 2.72798,-6.81179 -0.38146,1.92858 -0.76318,3.85682 -1.14516,5.78483 -0.34674,1.96589 -0.69372,3.93144 -1.04098,5.89676 1.3946,1.713 2.78888,3.42566 4.18293,5.13809 0.74807,1.55205 1.49585,3.10378 2.24338,4.65528 -0.80892,1.57524 -1.61807,3.15016 -2.4275,4.72484 0.88025,1.29165 1.7602,2.58298 2.6399,3.87407 -0.25278,2.8635 -0.50581,5.72663 -0.75911,8.58955 -1.75867,2.69185 -3.51753,5.38332 -5.27669,8.07458 -2.55239,2.8896 -5.10494,5.77881 -7.65781,8.66782 -2.96908,0.19516 -5.93832,0.39005 -8.90788,0.58468 -1.75476,0.17852 -3.50958,0.35676 -5.26495,0.53477 -1.09438,0.11892 -2.18886,0.23757 -3.28369,0.35596 -0.53069,-0.0817 -1.06162,-0.16357 -1.59284,-0.24576 z"
       sodipodi:nodetypes="ccccccccccccccccccccccccccccccccccc" />
    <path
       style="fill:#c83737;stroke:#800000;stroke-width:0.264583px;stroke-linecap:butt;stroke-linejoin:miter;stroke-opacity:1"
       d="m 11.953851,80.510585 c 0,-9.193765 0,-27.581555 -0.224664,-36.857049 C 11.504523,34.378043 11.054893,34.215005 10.319069,34.119014 9.5832451,34.023024 8.561324,33.994191 7.4588874,33.74849 6.3564507,33.502789 5.1735187,33.040122 4.3093526,32.313306 3.4451865,31.586491 2.8999769,30.595383 2.7099804,29.426403 2.519984,28.257424 2.6854006,26.910724 2.9988908,25.877478 3.312381,24.844231 3.7739379,24.124663 4.2720405,23.610199 4.770143,23.095736 5.3046356,22.78652 5.4336456,22.599958 5.5626556,22.413395 5.2859789,22.349375 4.9092178,22.317327 4.5324567,22.28528 4.0556907,22.28528 3.9444557,22.115469 3.8332208,21.945657 4.0878145,21.606009 4.8225284,20.641801 5.5572423,19.677593 6.772024,18.088895 7.3794403,17.516307 7.9868567,16.94372 7.9868567,17.38703 8.132717,18.572437 c 0.1458603,1.185406 0.4375169,3.112736 0.3694082,4.06586 -0.068109,0.953123 -0.4962151,0.93219 -0.7104103,0.921716 C 7.5775197,23.54954 7.5775197,23.54954 7.410831,23.412796 7.2441422,23.276051 6.9105049,23.002349 6.3574836,23.556322 5.8044623,24.110294 5.032446,25.492063 4.6756234,26.674154 c -0.3568226,1.182091 -0.2985168,2.164261 0.060572,3.054955 0.3590888,0.890695 1.0187099,1.689855 1.911643,2.19021 0.8929331,0.500356 2.0190514,0.702108 2.8910045,0.80296 0.8719531,0.100851 1.4897311,0.100851 1.7984941,-0.306199 0.308764,-0.40705 0.308764,-1.22138 0.311269,-2.70068 0.0025,-1.479301 0.0075,-3.623471 -0.132135,-4.630498 -0.13965,-1.007028 -0.424074,-0.876552 -0.822388,-0.778961 -0.398313,0.09759 -0.9106162,0.16227 -0.7795872,-0.396001 0.1310292,-0.558271 0.9056282,-1.739533 1.4234332,-2.823938 0.517805,-1.084405 0.778795,-2.072014 1.020746,-2.359242 0.241951,-0.287228 0.464641,0.125791 0.62019,0.635427 0.15555,0.509636 0.244081,1.115885 0.516705,1.970731 0.272623,0.854846 0.729226,1.958206 0.979762,2.645896 0.250536,0.687691 0.29508,0.959702 0.119657,0.959086 -0.175422,-6.17e-4 -0.571046,-0.273769 -0.886661,-0.389888 -0.315615,-0.11612 -0.551121,-0.07495 -0.620021,1.234429 -0.0689,1.309379 0.029,3.886559 0.08962,5.265804 0.06062,1.379244 0.08392,1.560484 0.46285,1.567722 0.378929,0.0072 1.113301,-0.159175 1.910131,-0.242361 0.79683,-0.08319 1.656001,-0.08319 2.610211,-0.511366 0.95421,-0.42818 2.003633,-1.284481 2.546902,-2.225646 0.543269,-0.941164 0.580396,-1.967414 0.415957,-2.944771 -0.164438,-0.977358 -0.530567,-1.905838 -1.074163,-2.769539 -0.543596,-0.863702 -1.264732,-1.662524 -1.878323,-1.668083 -0.61359,-0.0056 -1.119258,0.782372 -1.228412,0.0059 -0.109155,-0.776495 0.178185,-3.117495 0.514474,-4.221724 0.336288,-1.104229 0.721158,-0.971528 1.354758,-0.305261 0.633599,0.666267 1.515952,1.865828 2.067461,2.453439 0.551509,0.587611 0.772081,0.563512 0.799265,0.652889 0.02718,0.08938 -0.13876,0.292154 -0.502528,0.458647 -0.363768,0.166492 -0.925447,0.296716 -0.914212,0.612327 0.01123,0.31561 0.595324,0.816273 1.049092,1.57012 0.453769,0.753847 0.777348,1.760731 0.939092,2.663315 0.161744,0.902583 0.161744,1.700863 0.05856,2.497622 -0.103179,0.796759 -0.309481,1.59204 -0.669552,2.288163 -0.360071,0.696123 -0.873917,1.293212 -1.614885,1.742611 -0.740969,0.449398 -1.709201,0.751159 -2.509239,0.956592 -0.800038,0.205434 -1.431884,0.314515 -2.149167,0.406636 -0.717283,0.09212 -1.519988,0.167263 -1.96554,0.227091 -0.445552,0.05983 -0.533826,0.104382 -0.505409,0.402294 0.02842,0.297912 0.173496,0.848812 0.47542,10.018441 0.301924,9.16963 0.760746,26.95732 0.949068,35.945221 0.188321,8.987901 0.1062,9.175803 -0.120778,9.246595 -0.226978,0.07079 -0.59913,0.02455 -0.809185,0.02272 -0.210055,-0.0018 -0.257703,0.04078 -0.46981,0.01599 -0.212107,-0.02479 -0.588959,-0.117084 -0.777542,-0.163269 -0.188583,-0.04619 -0.188573,-0.04619 -0.188573,-9.239954 z"
       id="path935"
       inkscape:path-effect="#path-effect937"
       inkscape:original-d="m 11.953851,89.70435 c 2.65e-4,-18.38753 2.65e-4,-36.77532 0,-55.16338 -0.449381,-0.16278 -0.899011,-0.32582 -1.348914,-0.48912 -1.0216983,-0.0286 -2.0436203,-0.0574 -3.0658273,-0.0865 -1.182714,-0.46242 -2.365645,-0.92509 -3.548867,-1.38803 -0.544964,-0.99088 -1.09017,-1.98199 -1.635654,-2.97337 0.165688,-1.34649 0.331105,-2.69319 0.496261,-4.04019 0.461841,-0.71933 0.923396,-1.4389 1.384699,-2.15875 0.534776,-0.30896 1.069266,-0.61818 1.603502,-0.92766 -0.276431,-0.0638 -0.553117,-0.12778 -0.830069,-0.19207 -0.476525,2.6e-4 -0.953291,2.6e-4 -1.430335,0 0.254871,-0.3394 0.509463,-0.67905 0.763799,-1.01897 1.215094,-1.58849 2.429873,-3.17719 3.644411,-4.76618 2.64e-4,0.44359 2.64e-4,0.8869 0,1.32996 0.29194,1.92772 0.583598,3.85505 0.875009,5.78225 -0.42786,-0.0207 -0.855968,-0.0416 -1.284346,-0.0628 2.65e-4,2.6e-4 2.65e-4,2.6e-4 0,0 -0.333401,-0.27346 -0.66704,-0.54716 -1.000966,-0.82115 -0.771776,1.38208 -1.543791,2.76385 -2.316078,4.14536 0.05857,0.98248 0.116879,1.96465 0.174921,2.94657 0.659916,0.79946 1.319538,1.59862 1.978911,2.39754 1.126427,0.20202 2.252544,0.40378 3.3784198,0.60527 0.6180685,2.6e-4 1.2358465,2.6e-4 1.8533735,0 2.65e-4,-0.8141 2.65e-4,-1.62843 0,-2.44304 0.0053,-2.14399 0.01029,-4.28816 0.01503,-6.43264 -0.284165,0.13074 -0.568587,0.26122 -0.853276,0.39143 -0.512054,0.0649 -1.0243505,0.12963 -1.5369223,0.19404 0.7748983,-1.18105 1.5495003,-2.36231 2.3238533,-3.54387 0.261263,-0.98737 0.522248,-1.97498 0.782977,-2.96286 0.222959,0.41329 0.445648,0.82631 0.668075,1.23907 0.0888,0.60653 0.177329,1.21278 0.265597,1.81877 0.456888,1.10368 0.91349,2.20704 1.369838,3.31015 0.04481,0.27229 0.08936,0.5443 0.133635,0.81606 -0.39538,-0.2729 -0.791006,-0.54605 -1.186907,-0.81948 -0.235241,0.0414 -0.470742,0.0826 -0.706509,0.12351 0.09817,2.57754 0.196069,5.15472 0.293706,7.73168 0.02357,0.18151 0.04687,0.36275 0.06991,0.54372 0.734663,-0.16616 1.469036,-0.33257 2.203154,-0.49925 0.859472,2.6e-4 1.718643,2.6e-4 2.577568,0 1.049732,-0.85607 2.099156,-1.71237 3.148338,-2.56896 0.03739,-1.02602 0.07452,-2.05227 0.111381,-3.07881 -0.365873,-0.92824 -0.732001,-1.85672 -1.098399,-2.78547 -0.720921,-0.79861 -1.44206,-1.59743 -2.163514,-2.39658 -0.505427,0.78824 -1.011099,1.57617 -1.517038,2.36385 0.287618,-2.34083 0.574955,-4.68183 0.862036,-7.02314 0.385151,0.132971 0.770021,0.265672 1.154645,0.398115 0.882674,1.199903 1.765026,2.399464 2.647176,3.598845 0.220854,-0.02384 0.441426,-0.04794 0.66175,-0.0723 -0.165699,0.203066 -0.331643,0.405842 -0.49788,0.608389 -0.561515,0.130511 -1.123194,0.260735 -1.685206,0.39071 0.584391,0.500959 1.16848,1.001622 1.75234,1.50205 0.323859,1.007192 0.647438,2.014076 0.970763,3.020725 2.65e-4,0.79857 2.65e-4,1.59685 0,2.39487 -0.206044,0.79558 -0.412348,1.59086 -0.618918,2.38589 -0.513599,0.59738 -1.027444,1.19447 -1.541563,1.7913 -0.968005,0.30204 -1.936237,0.6038 -2.904752,0.9053 -0.631608,0.10935 -1.263454,0.21843 -1.895576,0.32725 -0.80247,0.0754 -1.605174,0.15055 -2.408158,0.22543 -0.08799,0.0448 -0.176241,0.0894 -0.264758,0.13363 0.145352,0.55119 0.290431,1.10209 0.43525,1.65273 0.459105,17.78866 0.917927,35.57635 1.376495,53.36412 -0.08186,0.18818 -0.163986,0.37608 -0.246375,0.56373 -0.371909,-0.046 -0.744066,-0.0922 -1.116499,-0.13872 -0.04739,0.0429 -0.09505,0.0855 -0.142965,0.12786 -0.376597,-0.092 -0.753443,-0.18432 -1.130562,-0.27688 z"
       sodipodi:nodetypes="cccccccccccccccccccccccccccccccccccccccccccccccccccccccccccccccccc" />
    <path
       style="fill:#c83737;fill-opacity:1;stroke:#800000;stroke-width:0.264583px;stroke-linecap:butt;stroke-linejoin:miter;stroke-opacity:1"
       d="M 26.166836,66.23929 C 24.397341,65.76521 20.858042,64.816967 19.088234,64.063909 17.318427,63.31085 17.318427,62.75281 17.219128,62.071963 17.11983,61.391116 16.921167,60.587466 16.430233,59.935927 15.9393,59.284388 15.1559,58.785119 14.5039,58.524252 13.851899,58.263385 13.331366,58.241118 12.812533,58.3896 c -0.518832,0.148482 -1.035735,0.467753 -1.324346,0.694339 -0.288612,0.226586 -0.348792,0.360317 -0.439217,0.638489 -0.09042,0.278172 -0.211095,0.700722 -0.27847,1.151358 -0.06738,0.450636 -0.0815,0.929246 -0.155349,1.411257 -0.07385,0.48201 -0.207398,0.96748 -0.138771,1.404888 0.06863,0.437408 0.339153,0.826608 0.767487,0.973693 0.428333,0.147084 1.014451,0.05238 1.50114,-0.149126 0.486689,-0.201504 0.874116,-0.509804 1.098824,-1.056612 0.224707,-0.546808 0.286735,-1.332369 0.28658,-1.86064 -1.55e-4,-0.528271 -0.06258,-0.799311 -0.06189,-0.710998 6.95e-4,0.08831 0.06454,0.535974 0.07538,1.025501 0.01084,0.489528 -0.03127,1.020959 -0.224108,1.46374 -0.192841,0.442782 -0.536417,0.797133 -0.620406,1.138297 -0.08399,0.341164 0.09144,0.668795 0.124133,0.995521 0.0327,0.326726 -0.07711,0.652686 0.01681,1.03578 0.09392,0.383094 0.391311,0.823155 0.819044,0.849607 0.427733,0.02645 0.985936,-0.360363 1.463184,-0.694053 0.477249,-0.333689 0.873517,-0.614233 1.306237,-0.662361 0.43272,-0.04813 0.901591,0.136002 2.753408,0.65589 1.851817,0.519887 5.08634,1.375508 6.684051,1.683843 1.597711,0.308335 1.558602,0.06912 1.545265,-0.246499 -0.01334,-0.315616 -8.4e-4,-0.707527 1.93e-4,-0.958523 0.001,-0.250996 -0.0094,-0.361075 -0.02382,-0.414308 -0.01439,-0.05323 -0.03287,-0.0493 -0.04222,-0.0473 -0.0093,0.002 -0.0093,0.002 -1.778837,-0.47209 z"
       id="path939"
       inkscape:path-effect="#path-effect941"
       inkscape:original-d="m 27.93633,66.71337 c -3.539037,-0.94798 -7.078337,-1.89622 -10.617903,-2.84473 2.64e-4,-0.55779 2.64e-4,-1.11583 0,-1.67414 -0.198409,-0.80343 -0.397074,-1.60708 -0.596006,-2.41102 -0.783167,-0.49902 -1.566566,-0.99829 -2.350249,-1.49784 -0.520284,-0.022 -1.040815,-0.0443 -1.561618,-0.0668 -0.516663,0.31955 -1.033566,0.63882 -1.550747,0.95784 -0.05991,0.13399 -0.120092,0.26772 -0.180536,0.40118 -0.120409,0.42283 -0.24108,0.84538 -0.362018,1.26767 -0.01387,0.4789 -0.02798,0.95751 -0.04236,1.43586 -0.133281,0.48575 -0.266825,0.97122 -0.400635,1.45643 0.270804,0.38948 0.541332,0.77868 0.811601,1.16763 0.586396,-0.0944 1.172507,-0.18915 1.758366,-0.28412 0.387707,-0.30804 0.775134,-0.61634 1.162304,-0.92492 0.06229,-0.78531 0.124322,-1.57087 0.186084,-2.3567 -0.06216,-0.27078 -0.12459,-0.54182 -0.187283,-0.81312 0.06411,0.44794 0.127955,0.8956 0.191537,1.343 -0.04184,0.53171 -0.08395,1.06314 -0.126317,1.59431 -0.343329,0.35463 -0.686906,0.70898 -1.030756,1.06308 0.175699,0.32792 0.351126,0.65555 0.526293,0.98293 -0.10955,0.32623 -0.21936,0.65219 -0.329438,0.97789 0.297667,0.44034 0.595056,0.8804 0.892186,1.32021 0.558485,-0.38656 1.116684,-0.77338 1.67463,-1.16046 0.396555,-0.2803 0.792826,-0.56084 1.188844,-0.84166 0.469154,0.1844 0.938025,0.36853 1.406639,0.5524 3.235026,0.855949 6.469549,1.711569 9.704083,2.566999 -0.03885,-0.238976 -0.07796,-0.478194 -0.117335,-0.717699 0.01276,-0.391683 0.02526,-0.783594 0.03749,-1.175802 -0.0102,-0.109816 -0.02067,-0.219894 -0.0314,-0.330236 -0.01822,0.0042 -0.03671,0.0081 -0.05546,0.01182 z"
       sodipodi:nodetypes="scccccccccccccccccccccccccccss" />
    <path
       style="fill:#c83737;fill-opacity:1;stroke:#800000;stroke-width:0.264583px;stroke-linecap:butt;stroke-linejoin:miter;stroke-opacity:1"
       d="m 10.699887,59.663877 c -0.329398,0.06415 -0.9883964,0.19248 -1.520022,0.299235 -0.5316255,0.106756 -0.9358711,0.191936 -1.2355093,0.393242 -0.2996382,0.201306 -0.4944147,0.518607 -0.5452259,0.852311 -0.050811,0.333704 0.042217,0.683543 0.222873,0.975144 0.1806562,0.291601 0.4487293,0.525009 0.7525101,0.64159 0.3037808,0.116581 0.6432728,0.116581 0.9858465,0.09451 0.3425736,-0.02207 0.6882646,-0.06618 0.9110686,-0.179383 0.222803,-0.113198 0.322997,-0.295588 0.343325,-0.552448 0.02033,-0.25686 -0.03932,-0.58839 -0.05343,-0.913833 -0.01411,-0.325443 0.01738,-0.644724 0.06055,-0.890744 0.04317,-0.246021 0.09803,-0.418692 0.167916,-0.537165 0.06989,-0.118474 0.15471,-0.182556 0.197101,-0.214581 0.04239,-0.03202 0.04239,-0.03202 -0.287004,0.03212 z"
       id="path948"
       inkscape:path-effect="#path-effect950"
       inkscape:original-d="m 11.029285,59.59973 c -0.658736,0.1286 -1.3177353,0.25693 -1.9770003,0.385 -0.40399,0.0854 -0.808225,0.17063 -1.212736,0.25554 -0.194522,0.31758 -0.3893,0.63488 -0.584346,0.95193 0.0933,0.35012 0.186325,0.69996 0.279093,1.04955 0.268346,0.23368 0.536417,0.46709 0.804228,0.70023 0.33977,2.7e-4 0.679262,2.7e-4 1.018495,0 0.345958,-0.0438 0.6916383,-0.088 1.0370623,-0.13234 0.100463,-0.18214 0.200658,-0.36453 0.300591,-0.54719 -0.05938,-0.33127 -0.119026,-0.6628 -0.178935,-0.99459 0.03176,-0.31903 0.06326,-0.63831 0.09449,-0.95786 0.05513,-0.17242 0.109993,-0.34509 0.164592,-0.51803 0.08509,-0.0638 0.169908,-0.12789 0.254463,-0.19224 z" />
    <path
       style="fill:#c83737;fill-opacity:1;stroke:#800000;stroke-width:0.264583px;stroke-linecap:butt;stroke-linejoin:miter;stroke-opacity:1"
       d="m 7.8639084,62.916951 c -0.1537343,0.07104 -0.461319,0.213178 -0.6860491,0.481141 -0.2247301,0.267962 -0.3664251,0.661523 -0.3595625,1.043368 0.00686,0.381845 0.1620896,0.751784 0.3915468,0.974455 0.2294571,0.22267 0.5329572,0.298306 0.7708517,0.370734 0.2378944,0.07243 0.4101881,0.141605 0.7769424,0.128863 0.3667544,-0.01274 0.9280687,-0.107235 1.3955013,-0.255683 0.467432,-0.148448 0.841078,-0.350826 1.02192,-0.503369 0.180841,-0.152542 0.168927,-0.255592 0.001,-0.388015 -0.167879,-0.132423 -0.491994,-0.294093 -0.646346,-0.528096 -0.154352,-0.234003 -0.138602,-0.540433 -0.107217,-0.801254 0.03139,-0.260821 0.07843,-0.475981 -0.07413,-0.556787 -0.15256,-0.08081 -0.5049608,-0.02703 -0.8217694,-0.01315 -0.3168085,0.01387 -0.5980706,-0.01223 -0.8436149,-0.02278 -0.2455443,-0.01055 -0.4553387,-0.0055 -0.5603649,-0.003 -0.1050261,0.0025 -0.1050261,0.0025 -0.2587604,0.07357 z"
       id="path952"
       inkscape:path-effect="#path-effect954"
       inkscape:original-d="m 8.0176427,62.84591 c -0.307322,0.1424 -0.614905,0.28454 -0.922756,0.42641 -0.141436,0.39385 -0.283133,0.78741 -0.425095,1.18071 0.155498,0.37022 0.310724,0.74016 0.46569,1.10984 0.303773,0.0759 0.607272,0.15154 0.910511,0.22691 0.172556,0.0694 0.344836,0.13861 0.516861,0.20752 0.561594,-0.0942 1.122902,-0.18873 1.6839583,-0.28348 0.373927,-0.20213 0.747577,-0.4045 1.120968,-0.60715 -0.01164,-0.10278 -0.02355,-0.20583 -0.03574,-0.30913 -0.323866,-0.16141 -0.647981,-0.32308 -0.972368,-0.48502 0.01601,-0.30616 0.03176,-0.61259 0.04725,-0.91928 0.04731,-0.2149 0.09436,-0.43006 0.14115,-0.64549 -0.352161,0.0541 -0.7045695,0.10783 -1.0572513,0.16135 -0.281006,-0.0258 -0.562268,-0.0519 -0.843798,-0.0783 -0.209534,0.005 -0.419322,0.0103 -0.62938,0.0151 z" />
    <path
       style="fill:#c83737;fill-opacity:1;stroke:#800000;stroke-width:0.264583px;stroke-linecap:butt;stroke-linejoin:miter;stroke-opacity:1"
       d="m 8.6463445,66.275159 c -0.04231,0.181319 -0.1268844,0.543759 -0.076361,0.851981 0.050523,0.308223 0.2358714,0.562103 0.512445,0.784905 0.2765737,0.222801 0.6442534,0.414644 0.9656929,0.450269 0.321439,0.03563 0.596812,-0.08474 0.87476,-0.220592 0.277949,-0.135847 0.558486,-0.287164 0.910823,-0.48748 0.352337,-0.200316 0.776473,-0.449625 1.106998,-0.711679 0.330524,-0.262055 0.567516,-0.536906 0.593534,-0.840009 0.02602,-0.303103 -0.159124,-0.634725 -0.330709,-0.873136 -0.171585,-0.238411 -0.329701,-0.38353 -0.471072,-0.463701 -0.141371,-0.08017 -0.266023,-0.09517 -0.48215,-0.02059 -0.216127,0.07458 -0.523538,0.238831 -1.058016,0.458855 -0.534478,0.220024 -1.2960444,0.495816 -1.7511331,0.65342 -0.4550888,0.157604 -0.6037053,0.197006 -0.6781032,0.216731 -0.074398,0.01973 -0.074398,0.01971 -0.1167082,0.201024 z"
       id="path956"
       inkscape:path-effect="#path-effect958"
       inkscape:original-d="m 8.6886547,66.09384 c -0.08431,0.36271 -0.168886,0.72515 -0.253725,1.08733 0.185621,0.25416 0.37097,0.50804 0.556059,0.76166 0.367959,0.19212 0.73564,0.38396 1.1030633,0.57554 0.275648,-0.12011 0.551021,-0.24048 0.826135,-0.36112 0.280813,-0.15106 0.561348,-0.30238 0.841624,-0.45396 0.424415,-0.24905 0.84855,-0.49836 1.272431,-0.74794 0.237265,-0.2746 0.474258,-0.54945 0.710991,-0.82457 -0.184888,-0.33138 -0.370033,-0.663 -0.555445,-0.9949 -0.157858,-0.14486 -0.315973,-0.28998 -0.474358,-0.43537 -0.124378,-0.0147 -0.249018,-0.0298 -0.373923,-0.045 -0.30716,0.16452 -0.614569,0.32877 -0.92225,0.49275 -0.76133,0.27607 -1.5228965,0.55186 -2.2847393,0.82739 -0.14836,0.0397 -0.296977,0.0791 -0.445863,0.11821 z" />
    <g
       id="g946"
       transform="translate(-21.343094,-156.67837)">
      <rect
         style="opacity:0.572087;fill:#800000;stroke-width:1.587"
         id="rect915"
         width="23.209156"
         height="23.209156"
         x="49.363724"
         y="213.56796"
         rx="1.3877788e-16" />
      <path
         style="fill:#800000;stroke:none;stroke-width:0.264583px;stroke-linecap:butt;stroke-linejoin:miter;stroke-opacity:1"
         d="m 64.798852,204.65677 h 23.19462 l -15.44332,8.9162 -23.186427,-0.005"
         id="path931" />
      <path
         style="fill:#aa0000;stroke:none;stroke-width:0.264583px;stroke-linecap:butt;stroke-linejoin:miter;stroke-opacity:1"
         d="m 72.572885,213.56824 15.420587,-8.91147 v 23.29748 l -15.420587,8.82315 z"
         id="path933" />
    </g>
    <path
       style="fill:#c83737;fill-opacity:1;stroke:#800000;stroke-width:0.264583px;stroke-linecap:butt;stroke-linejoin:miter;stroke-opacity:1"
       d="m 61.86438,63.184699 c 1.617998,-0.894911 4.853899,-2.68468 6.520358,-3.731976 1.666458,-1.047297 1.763615,-1.352334 1.856613,-1.875437 0.093,-0.523103 0.181809,-1.264311 0.308022,-1.731929 0.126212,-0.467618 0.289813,-0.661418 0.245221,-0.802405 -0.04459,-0.140988 -0.297699,-0.229238 -0.700094,-0.411383 -0.402396,-0.182146 -0.954044,-0.458218 -1.270636,-0.823106 -0.316591,-0.364887 -0.397839,-0.818696 -0.325106,-1.230085 0.07273,-0.411388 0.299541,-0.7801 0.678606,-0.997667 0.379065,-0.217567 0.910089,-0.283873 1.354784,-0.222711 0.444695,0.06116 0.802946,0.249588 1.107229,0.486783 0.304283,0.237195 0.554662,0.523036 0.712636,0.939478 0.157974,0.416441 0.223753,0.963456 0.322068,1.361727 0.09832,0.398271 0.229034,0.647762 0.594721,0.806176 0.365687,0.158414 0.966185,0.226025 1.360672,0.132384 0.394486,-0.09364 0.583256,-0.348531 1.005686,-0.812196 0.422431,-0.463666 1.078464,-1.136033 1.769559,-1.647457 0.691096,-0.511424 1.417097,-0.861823 1.977597,-0.927567 0.560501,-0.06574 0.955263,0.152932 1.253575,0.455452 0.298312,0.30252 0.500309,0.688732 0.490116,1.057796 -0.01019,0.369065 -0.232355,0.72122 -0.722472,1.016503 -0.490116,0.295283 -1.248364,0.533798 -1.883618,0.707656 -0.635253,0.173858 -1.147513,0.28304 -1.468551,0.345621 -0.321037,0.06258 -0.450881,0.07855 -0.494543,0.204394 -0.04366,0.125845 -9.69e-4,0.361227 0.09546,0.588437 0.09643,0.22721 0.246425,0.446241 0.440264,0.56612 0.193839,0.119879 0.43141,0.140878 0.907279,0.07444 0.475869,-0.06644 1.190079,-0.220253 1.86667,-0.269832 0.676591,-0.04958 1.315437,0.005 1.935227,0.187108 0.61979,0.182102 1.22046,0.491571 1.54476,0.831163 0.324299,0.339592 0.372498,0.709142 0.313789,1.064138 -0.05871,0.354996 -0.224229,0.695605 -0.487186,0.890098 -0.262957,0.194493 -0.623606,0.243001 -1.398894,0.231326 -0.775288,-0.01168 -1.965215,-0.08358 -2.806173,-0.282592 -0.840957,-0.199012 -1.332936,-0.525304 -1.640717,-0.532279 -0.307781,-0.007 -0.430997,0.305431 -0.270392,0.565848 0.160605,0.260417 0.604656,0.468834 1.059746,0.850953 0.45509,0.382118 0.921276,0.937772 1.156407,1.533146 0.235131,0.595375 0.239431,1.230443 -0.0087,1.620133 -0.248131,0.38969 -0.748849,0.534309 -1.149763,0.510259 -0.400914,-0.02405 -0.702146,-0.217007 -1.085267,-0.538518 -0.383121,-0.321511 -0.848062,-0.77161 -1.189699,-1.245806 -0.341637,-0.474196 -0.559816,-0.972512 -0.761663,-1.221835 -0.201846,-0.249323 -0.387476,-0.249323 -0.702653,-0.26498 -0.315178,-0.01566 -0.759906,-0.04699 -1.180136,-0.113299 -0.42023,-0.06631 -0.81597,-0.167649 -1.231905,-0.2085 -0.415935,-0.04085 -0.851973,-0.02112 -2.848732,0.93326 -1.996759,0.954378 -5.553936,2.843363 -7.313768,3.70107 -1.759831,0.857707 -1.722109,0.683862 -1.660673,0.43369 0.06144,-0.250171 0.146589,-0.576636 0.168312,-0.807371 0.02172,-0.230735 -0.02012,-0.365841 -0.0411,-0.433562 -0.02097,-0.06772 -0.02094,-0.06775 1.597064,-0.962662 z"
       id="path960"
       inkscape:path-effect="#path-effect962"
       inkscape:original-d="m 60.246381,64.07961 c 3.23617,-1.78951 6.47207,-3.57928 9.70771,-5.36931 0.0974,-0.30478 0.19458,-0.60981 0.29147,-0.91511 0.0891,-0.74097 0.17789,-1.48218 0.26644,-2.22367 0.16387,-0.19354 0.32747,-0.38734 0.49081,-0.58141 -0.25286,-0.088 -0.50597,-0.17624 -0.75935,-0.26476 -0.55141,-0.27582 -1.10306,-0.55189 -1.65499,-0.82824 -0.081,-0.45357 -0.16224,-0.90738 -0.24375,-1.36147 0.22708,-0.36846 0.45389,-0.73717 0.68044,-1.10616 0.53131,-0.066 1.06233,-0.13234 1.5931,-0.19892 0.35853,0.1887 0.71678,0.37713 1.07477,0.56529 0.25065,0.28611 0.50103,0.57195 0.75114,0.85753 0.066,0.5473 0.13182,1.09431 0.19734,1.64107 0.13098,0.24976 0.2617,0.49925 0.39216,0.74848 0.60079,0.0679 1.20129,0.13549 1.80154,0.20284 0.18905,-0.25464 0.37782,-0.50953 0.56633,-0.7647 0.65632,-0.67212 1.31235,-1.34449 1.968128,-2.01713 0.7263,-0.35015 1.4523,-0.70055 2.17805,-1.05122 0.39505,0.21895 0.78981,0.43763 1.18432,0.65605 0.20226,0.38648 0.40426,0.77269 0.60599,1.15863 -0.2219,0.35244 -0.44407,0.70459 -0.6665,1.05649 -0.75801,0.23879 -1.51626,0.4773 -2.27479,0.71556 -0.51201,0.10945 -1.02427,0.21863 -1.536798,0.32755 -0.12958,0.0162 -0.25942,0.0322 -0.38953,0.0479 0.043,0.23565 0.0857,0.47103 0.12808,0.70615 0.15027,0.21931 0.30027,0.43834 0.450008,0.65711 0.23786,0.0213 0.47544,0.0422 0.71276,0.063 0.7145,-0.15355 1.42871,-0.30736 2.14266,-0.46144 0.63914,0.0549 1.27799,0.10944 1.91659,0.16376 0.60095,0.30974 1.20162,0.61921 1.80203,0.92842 0.0485,0.36984 0.0967,0.73939 0.1446,1.10869 -0.16526,0.34088 -0.33078,0.68149 -0.49657,1.02184 -0.3604,0.0488 -0.72105,0.0973 -1.08198,0.14553 -1.1897,-0.0717 -2.37963,-0.14355 -3.56984,-0.21572 -0.49173,-0.32604 -0.98371,-0.65233 -1.47596,-0.97889 -0.12296,0.31267 -0.246168,0.62508 -0.369648,0.93722 0.444318,0.20868 0.888368,0.4171 1.332148,0.62525 0.46648,0.55595 0.93267,1.1116 1.3986,1.66701 0.005,0.63536 0.009,1.27043 0.0129,1.90524 -0.50047,0.14489 -1.00119,0.2895 -1.50217,0.43386 -0.30098,-0.1927 -0.60221,-0.38566 -0.90371,-0.57888 -0.464708,-0.44986 -0.929648,-0.89996 -1.394868,-1.35034 -0.21793,-0.49807 -0.4361,-0.99639 -0.65455,-1.49498 -0.18537,2.7e-4 -0.371,2.7e-4 -0.55689,0 -0.44448,-0.0311 -0.88921,-0.0624 -1.33421,-0.094 -0.39549,-0.10108 -0.79123,-0.20242 -1.18725,-0.30403 -0.43579,0.02 -0.87183,0.0397 -1.30813,0.0592 -3.55706,1.88933 -7.11424,3.77831 -10.67175,5.66707 0.038,-0.17359 0.0757,-0.34744 0.11317,-0.52156 0.0854,-0.32621 0.17057,-0.65267 0.25546,-0.97941 -0.0416,-0.13486 -0.0834,-0.26998 -0.12555,-0.40536 z" />
    <path
       style="fill:#f5ef53;fill-opacity:1;stroke:none;stroke-width:0.264583px;stroke-linecap:butt;stroke-linejoin:miter;stroke-opacity:1"
       d="m 38.693501,32.381567 c -0.962635,-1.921295 -2.147926,-5.659474 -2.491878,-8.326425 -0.343951,-2.666951 0.153567,-4.26246 1.059058,-3.895451 0.905491,0.367009 2.218667,2.696338 3.558981,4.710606 1.340314,2.014269 2.707632,3.713389 3.507116,5.884382 0.799484,2.170992 1.031304,4.813712 0.899506,7.062625 -0.131797,2.248912 -0.627123,4.103992 -1.33795,4.021876 -0.710826,-0.08212 -1.637299,-2.101516 -2.132109,-3.645551 -0.49481,-1.544034 -0.557805,-2.612584 -0.959063,-3.199332 -0.401258,-0.586747 -1.141027,-0.691435 -2.103661,-2.61273 z"
       id="path972"
       inkscape:path-effect="#path-effect974"
       inkscape:original-d="m 38.916055,34.19813 c -1.185026,-3.73791 -2.370314,-7.47609 -3.55587,-11.21453 0.497803,-1.59531 0.99532,-3.19082 1.492586,-4.78663 1.31349,2.32968 2.626664,4.65901 3.939601,6.98812 1.367636,1.69945 2.734955,3.39857 4.102034,5.09746 0.232095,2.6431 0.463915,5.28582 0.695476,7.92833 -0.495081,1.85542 -0.990407,3.7105 -1.486009,5.56535 -0.926245,-2.01922 -1.852721,-4.03862 -2.779477,-6.05833 -0.06273,-1.06832 -0.125727,-2.13687 -0.188989,-3.2057 -0.739534,-0.10443 -1.479304,-0.20911 -2.219352,-0.31407 z" />
    <path
       style="fill:#f5ef53;fill-opacity:1;stroke:#fea80e;stroke-width:0.264583px;stroke-linecap:butt;stroke-linejoin:miter;stroke-opacity:1"
       d="m 49.931458,13.379588 c -0.497689,-0.246522 -0.928798,-0.522611 -1.489761,-1.242336 -0.560962,-0.719725 -1.251628,-1.883155 -1.322431,-3.3095347 -0.0708,-1.4263801 0.478485,-3.1154599 0.803144,-3.4622167 0.324658,-0.3467568 0.424589,0.6486831 0.814314,1.6933492 0.389725,1.0446661 1.069054,2.1384741 1.748458,2.8861317 0.679403,0.7476575 1.358719,1.1492545 1.537271,1.7774415 0.178552,0.628187 -0.143305,1.482967 -0.586182,1.801838 -0.442878,0.318871 -1.007124,0.101848 -1.504813,-0.144673 z"
       id="path976"
       inkscape:path-effect="#path-effect978"
       inkscape:original-d="m 49.864573,13.40896 c -0.430845,-0.27583 -0.861954,-0.55192 -1.293331,-0.82827 -0.690428,-1.16321 -1.381093,-2.32664 -2.072039,-3.49036 0.549576,-1.68889 1.098864,-3.37797 1.647901,-5.06735 0.100201,0.99574 0.200131,1.99118 0.2998,2.98638 0.679619,1.09411 1.358945,2.18792 2.038022,3.28148 0.679611,0.40188 1.358931,0.80347 2.038,1.20482 -0.321603,0.85507 -0.643458,1.70985 -0.965586,2.56438 -0.564004,-0.21676 -1.128247,-0.43379 -1.692767,-0.65108 z" />
  </g>
</svg>
